# xmcd
#
# Track frame offsets:
#	150
#	18325
#	31080
#	45400
#	59875
#	72957
#	85522
#	104140
#	119205
#	130882
#	145600
#	159420
#
# Disc length: 2272 seconds
#
# Revision: 1
# Processed by: cddbd v1.5.1PL0 Copyright (c) Steve Scherf et al.
# Submitted via: audiograbber 1.82.02
#
DISCID=a508de0c
DTITLE=verzamel cd - Schlagerhits folge 1 cd 3
DYEAR=2000
DGENRE=Folk
TTITLE0=Jürgen Marcus - Ein festival der liebe
TTITLE1=Michael Morgan - Trinidad
TTITLE2=Erik Silvester - Zücker im kaffee
TTITLE3=Bata Illic - Dich erkenn ich mit verbunden augen
TTITLE4=Randolph Rose - Ibiza - Insel meine träume
TTITLE5=Bill Ramsey - Pigalle
TTITLE6=Harald Walz - Wenn gefühle sterben
TTITLE7=Hildegard Knef and Max Raabe - So oder so ist das leben
TTITLE8=René Carol - Lieben heisst leben
TTITLE9=Peter Orlof - Du
TTITLE10=Tommy Piper - L Paloma
TTITLE11=Manuela - Lord Leicester aus Manchester
EXTD=
EXTT0=
EXTT1=
EXTT2=
EXTT3=
EXTT4=
EXTT5=
EXTT6=
EXTT7=
EXTT8=
EXTT9=
EXTT10=
EXTT11=
PLAYORDER=
